<?xml version="1.0" ?><svg data-name="Layer 1" id="Layer_1" viewBox="0 0 64 64" xmlns="http://www.w3.org/2000/svg"><defs><style>.cls-1{fill:#65dcb7;}.cls-2{fill:#ff7bac;}</style></defs><path class="cls-1" d="M30,30H4V16A12,12,0,0,1,16,4H30ZM8,26H26V8H16a8,8,0,0,0-8,8Z"/><path class="cls-2" d="M36,36H58a0,0,0,0,1,0,0V48A10,10,0,0,1,48,58H36a0,0,0,0,1,0,0V36A0,0,0,0,1,36,36Z"/><path class="cls-2" d="M48,60H34V34H60V48A12,12,0,0,1,48,60ZM38,56H48a8,8,0,0,0,8-8V38H38Z"/><path class="cls-1" d="M30,60H16A12,12,0,0,1,4,48V34H30ZM8,38V48a8,8,0,0,0,8,8H26V38Z"/><path class="cls-1" d="M60,30H34V4H48A12,12,0,0,1,60,16ZM38,26H56V16a8,8,0,0,0-8-8H38Z"/></svg>