<?xml version="1.0" encoding="UTF-8"?>
<!-- Generator: visioncortex VTracer 0.6.1 -->
<svg version="1.1" xmlns="http://www.w3.org/2000/svg" width="1270" height="1280">
<path d="M0 0 C419.1 0 838.2 0 1270 0 C1270 422.4 1270 844.8 1270 1280 C850.9 1280 431.8 1280 0 1280 C0 857.6 0 435.2 0 0 Z " fill="#FCFCFC" transform="translate(0,0)"/>
<path d="M0 0 C1.06992187 0.00644531 2.13984375 0.01289063 3.2421875 0.01953125 C4.35335937 0.03628906 5.46453125 0.05304688 6.609375 0.0703125 C7.73601562 0.07933594 8.86265625 0.08835937 10.0234375 0.09765625 C12.80229865 0.12120592 15.5807289 0.1540957 18.359375 0.1953125 C19.79192023 3.06040295 19.52865835 5.5427355 19.57383728 8.74645996 C19.58456963 9.42714995 19.59530197 10.10783994 19.60635954 10.80915689 C19.6409213 13.10124506 19.66811483 15.39335744 19.69506836 17.68554688 C19.71769539 19.32477134 19.74056389 20.96399248 19.76365662 22.60321045 C19.9659957 37.5863528 20.07787806 52.57069633 20.16687679 67.55489349 C20.22801442 77.62862575 20.31557554 87.7006704 20.47045898 97.7734375 C20.60558977 106.56174907 20.69128267 115.3488937 20.71728426 124.13823175 C20.73264133 128.78891178 20.77198712 133.43649675 20.87016106 138.08622742 C20.9617188 142.46718448 20.98640885 146.84358766 20.96117592 151.22537994 C20.96341978 152.82751165 20.98941614 154.42982542 21.0417099 156.03110504 C21.40560175 167.77729499 21.40560175 167.77729499 18.00813222 171.79207039 C14.6922859 174.75996992 11.02389653 176.99577387 7.14642155 179.15015888 C4.30340141 180.81289832 1.77436985 182.8042179 -0.828125 184.8203125 C-5.27698864 188.1953125 -5.27698864 188.1953125 -8.640625 188.1953125 C-9.87886729 185.71882792 -9.7790898 184.05639403 -9.79884338 181.2852478 C-9.81352661 179.72871239 -9.81352661 179.72871239 -9.82850647 178.14073181 C-9.83426193 176.99778152 -9.8400174 175.85483124 -9.84594727 174.67724609 C-9.85584686 173.47726486 -9.86574646 172.27728363 -9.87594604 171.04093933 C-9.90216758 167.74571357 -9.92401564 164.45051248 -9.94394803 161.15524626 C-9.96579273 157.71322217 -9.99318882 154.27124246 -10.02000427 150.82925415 C-10.06995171 144.30926544 -10.11488291 137.78925212 -10.15802664 131.26921523 C-10.20738151 123.84727357 -10.26230611 116.42537643 -10.31770623 109.00347781 C-10.43155775 93.7341305 -10.53838987 78.46474227 -10.640625 63.1953125 C-11.92001498 64.9492017 -13.19868441 66.70361653 -14.47705078 68.45825195 C-15.54525558 69.92365166 -15.54525558 69.92365166 -16.63504028 71.4186554 C-19.00125972 74.69459779 -21.28669324 78.01255151 -23.515625 81.3828125 C-24.13497925 82.31420044 -24.13497925 82.31420044 -24.7668457 83.2644043 C-28.31315342 88.62977819 -31.70776966 94.0850758 -35.09448242 99.55200195 C-38.42436468 104.90498703 -41.96064154 110.07647295 -45.640625 115.1953125 C-46.83078591 116.88093687 -48.01825384 118.56846563 -49.203125 120.2578125 C-49.77546875 121.07121094 -50.3478125 121.88460937 -50.9375 122.72265625 C-53.16498885 125.95660222 -55.28231931 129.25805034 -57.37890625 132.578125 C-57.79527344 133.11179687 -58.21164062 133.64546875 -58.640625 134.1953125 C-59.300625 134.1953125 -59.960625 134.1953125 -60.640625 134.1953125 C-60.640625 133.5353125 -60.640625 132.8753125 -60.640625 132.1953125 C-61.2078125 131.99035156 -61.775 131.78539062 -62.359375 131.57421875 C-65.46729847 129.69562802 -67.1406471 127.08063953 -69.140625 124.1328125 C-69.56931885 123.51720459 -69.9980127 122.90159668 -70.43969727 122.26733398 C-71.36434103 120.93932993 -72.28552953 119.60891478 -73.20361328 118.27636719 C-75.63682979 114.75262653 -78.10874894 111.25626176 -80.578125 107.7578125 C-81.07916748 107.04608887 -81.58020996 106.33436523 -82.09643555 105.60107422 C-85.94325323 100.14796776 -89.86749217 94.75575276 -93.83422852 89.3894043 C-96.99379416 85.1078256 -100.04500808 80.76468854 -103.0078125 76.34375 C-105.00194571 73.71989051 -107.29687728 71.50756208 -109.640625 69.1953125 C-109.63693783 69.77085467 -109.63325066 70.34639685 -109.62945175 70.93937969 C-109.54079544 84.99719927 -109.47476786 99.05497651 -109.43337631 113.11301708 C-109.41282335 119.91162903 -109.38484355 126.71005343 -109.33886719 133.50854492 C-109.29446973 140.07674253 -109.27144711 146.64481898 -109.26111603 153.21315956 C-109.25375915 155.71163297 -109.23939338 158.21009646 -109.21770477 160.70848656 C-108.95083459 192.74146921 -108.95083459 192.74146921 -120.640625 206.1953125 C-123.16026756 208.728624 -125.70110804 211.1545444 -128.640625 213.1953125 C-129.300625 213.1953125 -129.960625 213.1953125 -130.640625 213.1953125 C-130.970625 214.1853125 -131.300625 215.1753125 -131.640625 216.1953125 C-138.20821543 221.39397589 -146.69509395 223.18033286 -154.640625 225.1953125 C-155.83558594 225.55367187 -157.03054688 225.91203125 -158.26171875 226.28125 C-173.5728497 230.05984663 -191.2474946 228.28266605 -205.640625 222.1953125 C-206.49011719 221.90785156 -207.33960938 221.62039063 -208.21484375 221.32421875 C-218.84629391 217.44642977 -226.84232551 208.176508 -231.640625 198.1953125 C-232.83467046 194.61317611 -232.809449 191.65909992 -232.828125 187.8828125 C-232.84230469 186.58730469 -232.85648437 185.29179688 -232.87109375 183.95703125 C-232.12623376 171.79940123 -223.9756203 161.68273641 -215.46484375 153.6015625 C-203.74516291 143.61632958 -187.96707701 136.9185175 -172.578125 136.3828125 C-171.66780518 136.34567139 -170.75748535 136.30853027 -169.81958008 136.27026367 C-158.73655925 135.94129563 -148.37179319 137.4738655 -137.640625 140.1953125 C-137.64284561 139.09728302 -137.64506622 137.99925354 -137.64735413 136.86795044 C-137.66759486 126.53784111 -137.68260165 116.20773579 -137.69243717 105.87761116 C-137.69766362 100.56634828 -137.70475698 95.25510135 -137.71606445 89.94384766 C-137.72690175 84.82159136 -137.73290364 79.69935046 -137.73550224 74.57708359 C-137.73735496 72.6193912 -137.74097267 70.66169969 -137.74635506 68.70401382 C-137.75357664 65.96948655 -137.75461546 63.2350235 -137.75415039 60.50048828 C-137.75774567 59.68481384 -137.76134094 58.8691394 -137.76504517 58.02874756 C-137.75467716 52.42341682 -137.75467716 52.42341682 -136.640625 50.1953125 C-132.30821289 49.96141982 -127.97743572 49.82036986 -123.640625 49.6953125 C-122.41988281 49.62828125 -121.19914063 49.56125 -119.94140625 49.4921875 C-111.00296399 49.29892388 -111.00296399 49.29892388 -107.08374023 51.87768555 C-105.05262218 53.88603687 -103.32904798 55.89471277 -101.640625 58.1953125 C-101.11758789 58.86981445 -100.59455078 59.54431641 -100.05566406 60.23925781 C-99.10412847 61.48346789 -98.17180712 62.74249194 -97.25390625 64.01171875 C-93.10493684 69.62739406 -88.53806429 74.93835621 -84.05078125 80.28515625 C-76.6001668 89.16697006 -76.6001668 89.16697006 -73.390625 93.5078125 C-67.8875253 101.59098232 -67.8875253 101.59098232 -59.640625 106.1953125 C-59.36299316 105.31858887 -59.08536133 104.44186523 -58.79931641 103.53857422 C-57.73417634 100.46524341 -56.51439677 97.62937867 -55.1015625 94.703125 C-54.360271 93.16241333 -54.360271 93.16241333 -53.60400391 91.59057617 C-52.81775635 89.97179565 -52.81775635 89.97179565 -52.015625 88.3203125 C-51.47728027 87.20567627 -50.93893555 86.09104004 -50.38427734 84.94262695 C-45.65927725 75.18134427 -40.82010649 65.48184993 -35.92578125 55.8046875 C-35.39855469 54.75796875 -34.87132812 53.71125 -34.328125 52.6328125 C-33.87824219 51.74464844 -33.42835938 50.85648437 -32.96484375 49.94140625 C-32.01290692 47.96733075 -31.12230707 45.96324378 -30.27246094 43.94311523 C-28.74620751 40.366702 -27.01194902 36.92978944 -25.20703125 33.484375 C-24.88782211 32.87193939 -24.56861298 32.25950378 -24.23973083 31.62850952 C-22.89241074 29.04362461 -21.53928257 26.46179637 -20.1862793 23.87988281 C-19.19095151 21.97837546 -18.19844056 20.07542794 -17.20703125 18.171875 C-16.8883609 17.56289368 -16.56969055 16.95391235 -16.24136353 16.32647705 C-14.12848933 12.25186157 -12.26030624 8.13890716 -10.64038086 3.84521484 C-8.20786134 -0.16918489 -4.29814537 -0.04572495 0 0 Z " fill="#342F32" transform="translate(691.640625,423.8046875)"/>
<path d="M0 0 C0.33 1.65 0.66 3.3 1 5 C2.52152079 4.88366642 4.04220723 4.7564113 5.5625 4.625 C6.40941406 4.55539062 7.25632812 4.48578125 8.12890625 4.4140625 C11.09387491 4.06471795 11.09387491 4.06471795 14.2109375 2.9921875 C31.03988483 -1.41456778 51.5389327 2.30478748 66.75 10.37109375 C72.97200213 14.01299056 77.88989623 18.97019786 83 24 C83.63421875 24.60972656 84.2684375 25.21945312 84.921875 25.84765625 C90.83291573 32.04815516 94.55679443 41.12029764 95.06640625 49.66015625 C94.78355086 59.62664913 92.64590721 68.9084818 85.80078125 76.41015625 C71.89495581 89.4864348 56.09862079 93.33211292 37.30859375 93.09765625 C26.26062847 92.63031423 26.26062847 92.63031423 23 91 C21.25107199 90.78285122 19.50082322 90.57629786 17.75 90.375 C6.48800929 88.54982744 -3.59426429 82.56368486 -12 75 C-13.39412109 73.7625 -13.39412109 73.7625 -14.81640625 72.5 C-23.21189941 64.75911803 -28.5293137 56.41976644 -29.17700195 44.83374023 C-29.2313621 41.7066239 -29.27641067 38.57994276 -29.29516602 35.45239258 C-29.30673832 34.10723394 -29.3272726 32.76212306 -29.35668945 31.41723633 C-29.39932782 29.46468517 -29.41292623 27.5115681 -29.42578125 25.55859375 C-29.44036377 24.39642334 -29.45494629 23.23425293 -29.4699707 22.03686523 C-28.79510931 17.67603361 -26.66912349 16.254508 -23.2800293 13.70727539 C-22.71711182 13.34110107 -22.15419434 12.97492676 -21.57421875 12.59765625 C-20.94193359 12.18193359 -20.30964844 11.76621094 -19.65820312 11.33789062 C-18.68270508 10.70657227 -18.68270508 10.70657227 -17.6875 10.0625 C-16.39896075 9.2212438 -15.11119702 8.37879854 -13.82421875 7.53515625 C-12.87554932 6.91664795 -12.87554932 6.91664795 -11.90771484 6.28564453 C-9.9613942 4.97398283 -8.08793298 3.58697877 -6.20703125 2.18359375 C-3 0 -3 0 0 0 Z " fill="#342F32" transform="translate(711,637)"/>
<path d="M0 0 C0.7106662 -0.0066568 1.4213324 -0.0133136 2.15353394 -0.02017212 C3.66157442 -0.03030844 5.16965986 -0.03498884 6.67773438 -0.03466797 C8.96301709 -0.03900711 11.24631369 -0.07521546 13.53125 -0.11328125 C29.13094017 -0.23534288 29.13094017 -0.23534288 35.3671875 5.78369141 C40.01459321 11.03017676 41.15882483 14.74280672 41.1796875 21.7109375 C41.19644531 22.99742187 41.21320312 24.28390625 41.23046875 25.609375 C40.53143694 32.78008842 37.02183881 36.72965335 31.8671875 41.3359375 C31.2071875 41.3359375 30.5471875 41.3359375 29.8671875 41.3359375 C31.89109875 46.48413893 34.3127634 50.74359711 37.5546875 55.2109375 C41.8671875 61.22837936 41.8671875 61.22837936 41.8671875 62.3359375 C40.28539135 62.44461052 38.70141597 62.52183577 37.1171875 62.5859375 C36.23546875 62.63234375 35.35375 62.67875 34.4453125 62.7265625 C30.97075697 62.20011469 30.062132 61.05306638 27.8671875 58.3359375 C26.38476384 56.14476384 24.97995586 53.97212352 23.6171875 51.7109375 C23.25367188 51.12570312 22.89015625 50.54046875 22.515625 49.9375 C19.8671875 45.59645207 19.8671875 45.59645207 19.8671875 43.3359375 C17.05430045 43.47613442 14.24201865 43.62281705 11.4296875 43.7734375 C10.62724609 43.81275391 9.82480469 43.85207031 8.99804688 43.89257812 C5.11479189 43.7413671 5.11479189 43.7413671 1.8671875 45.3359375 C1.63017511 48.19471659 1.44499568 51.03477047 1.3046875 53.8984375 C1.26150391 54.70474609 1.21832031 55.51105469 1.17382812 56.34179688 C1.06743488 58.33962555 0.96677862 60.3377582 0.8671875 62.3359375 C-6.8828125 62.4609375 -6.8828125 62.4609375 -9.1328125 61.3359375 C-9.17910418 53.67786535 -9.21466553 46.01980766 -9.23643684 38.36162758 C-9.24688474 34.80581351 -9.26106209 31.250095 -9.28369141 27.69433594 C-9.30953082 23.6087145 -9.31927694 19.52319381 -9.328125 15.4375 C-9.33844757 14.15726959 -9.34877014 12.87703918 -9.35940552 11.55801392 C-9.35955658 10.37694061 -9.35970764 9.19586731 -9.35986328 7.97900391 C-9.3643045 6.93531647 -9.36874573 5.89162903 -9.37332153 4.8163147 C-8.82955157 -0.79160193 -4.51184324 0.01462928 0 0 Z " fill="#342F32" transform="translate(789.1328125,808.6640625)"/>
<path d="M0 0 C0.85207031 -0.07476563 1.70414062 -0.14953125 2.58203125 -0.2265625 C6.910456 1.18812505 8.15481753 4.73796034 10.1875 8.625 C10.92262817 10.02443848 10.92262817 10.02443848 11.67260742 11.45214844 C13.27034378 14.55798165 14.82758025 17.68131814 16.375 20.8125 C16.90802734 21.87919922 17.44105469 22.94589844 17.99023438 24.04492188 C21.9782512 32.06610288 21.9782512 32.06610288 23.2277832 35.40356445 C23.97456794 37.78674841 23.97456794 37.78674841 26.1875 38.625 C26.1875 39.285 26.1875 39.945 26.1875 40.625 C28.73270474 38.33496172 30.13763455 36.07664637 31.640625 33.01171875 C32.31762451 31.64309692 32.31762451 31.64309692 33.00830078 30.24682617 C33.71575439 28.79433472 33.71575439 28.79433472 34.4375 27.3125 C34.92331543 26.32805908 35.40913086 25.34361816 35.90966797 24.3293457 C36.88520076 22.35225083 37.85837909 20.37399234 38.82910156 18.39453125 C40.64408897 14.69409682 42.47504362 11.00181444 44.3125 7.3125 C44.85132813 6.22324219 45.39015625 5.13398437 45.9453125 4.01171875 C47.1875 1.625 47.1875 1.625 48.1875 0.625 C49.85179051 0.52676063 51.52031931 0.49526369 53.1875 0.5 C54.54875 0.49613281 54.54875 0.49613281 55.9375 0.4921875 C58.1875 0.625 58.1875 0.625 59.1875 1.625 C59.28141296 3.52743762 59.30493658 5.43338459 59.30102539 7.33813477 C59.30091209 9.16992027 59.30091209 9.16992027 59.30079651 11.03871155 C59.29568911 12.38127686 59.29047311 13.72384175 59.28515625 15.06640625 C59.28329199 16.43261158 59.28186813 17.79881757 59.28086853 19.1650238 C59.27704394 22.76701695 59.26721417 26.36897 59.25616455 29.97094727 C59.24594916 33.64403745 59.24137064 37.31713409 59.23632812 40.99023438 C59.22559184 48.20184123 59.20851614 55.413415 59.1875 62.625 C53.03515625 62.72265625 53.03515625 62.72265625 51.1875 62.625 C49.65958917 61.09708917 50.02566543 59.69510592 49.98217773 57.56420898 C49.9522599 56.27298378 49.9522599 56.27298378 49.92173767 54.95567322 C49.90502518 54.02026199 49.88831268 53.08485077 49.87109375 52.12109375 C49.85031265 51.16807877 49.82953156 50.21506378 49.80812073 49.23316956 C49.74251823 46.1763559 49.68369082 43.11945344 49.625 40.0625 C49.58182494 37.99543337 49.53821099 35.92837586 49.49414062 33.86132812 C49.38682599 28.78264405 49.28558909 23.7038703 49.1875 18.625 C43.70944656 29.57055692 43.70944656 29.57055692 38.25390625 40.52734375 C37.83302734 41.37361328 37.41214844 42.21988281 36.97851562 43.09179688 C36.13072518 44.79681263 35.28446479 46.50258974 34.43945312 48.20898438 C34.02759766 49.03591797 33.61574219 49.86285156 33.19140625 50.71484375 C32.82861572 51.44566162 32.4658252 52.17647949 32.09204102 52.92944336 C31.1875 54.625 31.1875 54.625 30.1875 55.625 C24.82630645 56.09119074 24.82630645 56.09119074 22.72924805 54.56079102 C20.48913667 51.74814761 18.97716249 48.61118106 17.39453125 45.40234375 C17.04363937 44.7010585 16.6927475 43.99977325 16.33122253 43.27723694 C15.59301353 41.79848358 14.85774866 40.31825729 14.12524414 38.83666992 C13.00058484 36.56368199 11.86530233 34.29623965 10.72851562 32.02929688 C10.01238543 30.59146213 9.29686923 29.15332138 8.58203125 27.71484375 C8.24146194 27.03461655 7.90089264 26.35438934 7.55000305 25.65354919 C5.1875 20.85605159 5.1875 20.85605159 5.1875 18.625 C4.1975 18.625 3.2075 18.625 2.1875 18.625 C2.1875 33.145 2.1875 47.665 2.1875 62.625 C-4.8125 62.625 -4.8125 62.625 -6.8125 61.625 C-6.85879168 53.96692785 -6.89435303 46.30887016 -6.91612434 38.65069008 C-6.92657224 35.09487601 -6.94074959 31.5391575 -6.96337891 27.98339844 C-6.98921832 23.897777 -6.99896444 19.81225631 -7.0078125 15.7265625 C-7.01813507 14.44633209 -7.02845764 13.16610168 -7.03909302 11.84707642 C-7.03924408 10.66600311 -7.03939514 9.48492981 -7.03955078 8.26806641 C-7.043992 7.22437897 -7.04843323 6.18069153 -7.05300903 5.1053772 C-6.60864119 0.52259772 -4.07099069 0.2319305 0 0 Z " fill="#342F32" transform="translate(254.8125,808.375)"/>
<path d="M0 0 C0.90492188 0.02320313 1.80984375 0.04640625 2.7421875 0.0703125 C4.10730469 0.09738281 4.10730469 0.09738281 5.5 0.125 C6.19867187 0.14820313 6.89734375 0.17140625 7.6171875 0.1953125 C10.417812 4.99472133 12.98129161 9.84388769 15.40234375 14.84375 C16.10434601 16.27497104 16.80683377 17.70595404 17.50976562 19.13671875 C18.60285979 21.36638383 19.69279045 23.59738317 20.7746582 25.83251953 C21.82898732 28.00750267 22.89575517 30.17599201 23.96484375 32.34375 C24.28679214 33.01659027 24.60874054 33.68943054 24.94044495 34.38265991 C25.75753552 36.02643073 26.67991288 37.61697926 27.6171875 39.1953125 C28.6071875 39.5253125 29.5971875 39.8553125 30.6171875 40.1953125 C31.02142944 38.89787109 31.02142944 38.89787109 31.43383789 37.57421875 C32.59300608 34.26435951 33.97058005 31.26108192 35.55078125 28.1328125 C36.11732422 27.00617187 36.68386719 25.87953125 37.26757812 24.71875 C38.15219727 22.97464844 38.15219727 22.97464844 39.0546875 21.1953125 C39.64056641 20.03257812 40.22644531 18.86984375 40.83007812 17.671875 C41.92321151 15.50297926 43.01799216 13.33491235 44.11499023 11.16796875 C45.15861582 9.10276719 46.18004808 7.02626064 47.18383789 4.94140625 C48.6171875 2.1953125 48.6171875 2.1953125 50.6171875 0.1953125 C52.96484375 -0.03515625 52.96484375 -0.03515625 55.6796875 0.0078125 C57.02740234 0.01748047 57.02740234 0.01748047 58.40234375 0.02734375 C60.6171875 0.1953125 60.6171875 0.1953125 61.6171875 1.1953125 C61.70580234 3.05668855 61.72407052 4.92145074 61.71484375 6.78491211 C61.71154053 7.97962631 61.7082373 9.17434052 61.70483398 10.40525818 C61.69653564 11.70624954 61.6882373 13.00724091 61.6796875 14.34765625 C61.67528501 15.68664882 61.67146752 17.02564343 61.66821289 18.36463928 C61.6548111 23.34397769 61.63062318 28.32325375 61.60681152 33.30255127 C61.58711219 37.50622259 61.57145694 41.70987072 61.56124878 45.91357613 C61.55474977 47.89120841 61.54217476 49.86881768 61.52954102 51.84642029 C61.52623779 53.04428665 61.52293457 54.24215302 61.51953125 55.47631836 C61.51167603 57.06397255 61.51167603 57.06397255 61.50366211 58.68370056 C61.4466198 61.1928191 61.4466198 61.1928191 62.6171875 63.1953125 C61.13750426 63.05481732 59.65844234 62.90776424 58.1796875 62.7578125 C57.35597656 62.67660156 56.53226563 62.59539063 55.68359375 62.51171875 C53.6171875 62.1953125 53.6171875 62.1953125 52.6171875 61.1953125 C52.52844615 58.09280049 52.50200295 55.0126313 52.51953125 51.91015625 C52.5209462 50.97933731 52.52236115 50.04851837 52.52381897 49.0894928 C52.52943578 46.10390059 52.5419911 43.11838221 52.5546875 40.1328125 C52.55970034 38.11393337 52.56426362 36.09505307 52.56835938 34.07617188 C52.57941067 29.11585678 52.59668655 24.15559718 52.6171875 19.1953125 C51.9571875 19.1953125 51.2971875 19.1953125 50.6171875 19.1953125 C50.32062256 19.78844238 50.02405762 20.38157227 49.71850586 20.99267578 C44.01806641 32.39355469 38.31762695 43.79443359 32.6171875 55.1953125 C27.22655142 55.68537033 27.22655142 55.68537033 24.62329102 53.59179688 C22.25051803 50.75729041 20.83575449 47.95059713 19.26953125 44.6015625 C18.97156143 43.97302368 18.67359161 43.34448486 18.36659241 42.69689941 C17.4211601 40.70008291 16.48716858 38.69820567 15.5546875 36.6953125 C14.61723814 34.69313857 13.67728625 32.69224553 12.73207092 30.69372559 C11.87554974 28.88115628 11.02727241 27.06469816 10.17944336 25.24804688 C8.58047497 21.91071243 8.58047497 21.91071243 5.6171875 18.1953125 C5.2871875 32.7153125 4.9571875 47.2353125 4.6171875 62.1953125 C1.9771875 62.1953125 -0.6628125 62.1953125 -3.3828125 62.1953125 C-5.12334382 60.45478118 -4.5193968 58.06528247 -4.52807617 55.69750977 C-4.53445602 54.52281631 -4.54083588 53.34812286 -4.54740906 52.13783264 C-4.54852188 50.85871506 -4.5496347 49.57959747 -4.55078125 48.26171875 C-4.55410965 46.95831039 -4.55743805 45.65490204 -4.56086731 44.31199646 C-4.5668645 41.54872815 -4.56870662 38.78549115 -4.56811523 36.0222168 C-4.56801359 32.47662777 -4.58166481 28.93123893 -4.59888744 25.38569736 C-4.61266263 22.01103451 -4.61209573 18.63640941 -4.61328125 15.26171875 C-4.62046677 13.9846254 -4.62765228 12.70753204 -4.63505554 11.39173889 C-4.63197891 10.21389328 -4.62890228 9.03604767 -4.62573242 7.82250977 C-4.62715744 6.78183853 -4.62858246 5.7411673 -4.63005066 4.66896057 C-4.29073328 1.27404858 -3.42732616 0.28092837 0 0 Z " fill="#342F32" transform="translate(619.3828125,808.8046875)"/>
<path d="M0 0 C1.21816406 0.03480469 1.21816406 0.03480469 2.4609375 0.0703125 C3.68683594 0.09738281 3.68683594 0.09738281 4.9375 0.125 C5.87722656 0.15980469 5.87722656 0.15980469 6.8359375 0.1953125 C12.42444779 11.00385987 17.4583778 22.0523697 21.8984375 33.3828125 C24.27499522 39.44150471 27.08642954 45.29930879 29.8359375 51.1953125 C30.63320261 52.92190504 31.42565564 54.6507369 32.2109375 56.3828125 C32.52804687 57.07761719 32.84515625 57.77242187 33.171875 58.48828125 C33.8359375 60.1953125 33.8359375 60.1953125 33.8359375 62.1953125 C32.37770538 62.2223168 30.91933075 62.24171037 29.4609375 62.2578125 C28.24277344 62.27521484 28.24277344 62.27521484 27 62.29296875 C24.8359375 62.1953125 24.8359375 62.1953125 22.8359375 61.1953125 C21.73061644 59.2509783 20.69872822 57.26441152 19.7109375 55.2578125 C19.17210937 54.17628906 18.63328125 53.09476563 18.078125 51.98046875 C16.8359375 49.1953125 16.8359375 49.1953125 16.8359375 47.1953125 C6.9359375 47.5253125 -2.9640625 47.8553125 -13.1640625 48.1953125 C-14.8140625 51.4953125 -16.4640625 54.7953125 -18.1640625 58.1953125 C-18.8240625 59.5153125 -19.4840625 60.8353125 -20.1640625 62.1953125 C-23.1340625 62.1953125 -26.1040625 62.1953125 -29.1640625 62.1953125 C-29.1640625 57.94561186 -27.34489663 54.58722002 -25.6640625 50.7578125 C-25.28113037 49.87633545 -24.89819824 48.9948584 -24.50366211 48.08666992 C-23.34587906 45.43107263 -22.18135104 42.7785361 -21.01385498 40.12719727 C-20.07374741 37.98999373 -19.13662953 35.85149231 -18.19970703 33.71289062 C-16.41066773 29.63140912 -14.61513924 25.55283094 -12.81542969 21.4760437 C-12.08931291 19.83009083 -11.36454106 18.18354398 -10.64111328 16.53640747 C-9.61305681 14.19796129 -8.57884828 11.86233307 -7.54296875 9.52734375 C-7.07625511 8.46148041 -7.07625511 8.46148041 -6.60011292 7.37408447 C-3.4506526 0.31143074 -3.4506526 0.31143074 0 0 Z " fill="#342F32" transform="translate(729.1640625,808.8046875)"/>
<path d="M0 0 C1.0305249 -0.01836914 2.0610498 -0.03673828 3.12280273 -0.05566406 C10.85874997 0.00708188 18.21425424 1.19454326 24.12890625 6.53515625 C24.77666016 7.53869141 24.77666016 7.53869141 25.4375 8.5625 C25.89253906 9.23410156 26.34757813 9.90570313 26.81640625 10.59765625 C30.45178155 17.13060005 29.80355997 25.54263539 27.86328125 32.55078125 C26.15779111 38.01625159 24.48398926 42.98876342 20.875 47.5 C20.400625 48.61375 19.92625 49.7275 19.4375 50.875 C17.87714286 54.49502858 16.13805381 57.30051013 13.875 60.5 C12.75832337 57.14997012 13.24662933 55.79658297 14.26171875 52.5234375 C17.3829427 42.22538649 17.81808309 34.31751225 12.875 24.5 C9.87964915 20.32790417 5.72349844 18.80036548 0.875 17.5 C-2.69834321 17.10950305 -6.22141817 17.11915761 -9.8125 17.1875 C-10.78638672 17.1987793 -11.76027344 17.21005859 -12.76367188 17.22167969 C-24.05150048 17.43572035 -34.11002629 19.23859771 -44.8359375 22.79296875 C-48.57820839 23.59742366 -51.39440508 23.24139671 -55.125 22.5 C-55.28781338 20.9201072 -55.40377979 19.33534259 -55.5 17.75 C-55.56960938 16.86828125 -55.63921875 15.9865625 -55.7109375 15.078125 C-55.125 12.5 -55.125 12.5 -52.546875 10.296875 C-47.11826634 7.44623575 -41.37688184 6.3204514 -35.43603516 5.01757812 C-33.11855518 4.49855662 -30.81663135 3.93136172 -28.51171875 3.359375 C-19.00014285 1.10806834 -9.77978695 0.09549019 0 0 Z " fill="#342F32" transform="translate(775.125,436.5)"/>
<path d="M0 0 C6.1055471 -0.02464513 12.21106551 -0.04283371 18.31665039 -0.05493164 C20.39543156 -0.05997288 22.47420916 -0.06680574 24.55297852 -0.07543945 C27.53402586 -0.08751422 30.51502649 -0.09323024 33.49609375 -0.09765625 C34.89921059 -0.10539818 34.89921059 -0.10539818 36.33067322 -0.11329651 C37.19149002 -0.11337204 38.05230682 -0.11344757 38.93920898 -0.11352539 C40.08171364 -0.11685631 40.08171364 -0.11685631 41.24729919 -0.12025452 C43 0 43 0 44 1 C44.14115161 3.67058851 44.04247107 6.32432238 44 9 C42.55379272 9.03758423 42.55379272 9.03758423 41.07836914 9.07592773 C37.51312158 9.16985306 33.94807567 9.27010939 30.38305664 9.37231445 C28.83785711 9.41571985 27.29260786 9.45739071 25.74731445 9.49731445 C23.53060904 9.55488199 21.3141552 9.61861424 19.09765625 9.68359375 C18.4028566 9.70030624 17.70805695 9.71701874 16.99220276 9.73423767 C13.71237971 9.56502856 13.71237971 9.56502856 11 11 C10.92741054 13.18639453 10.91626217 15.37500389 10.9375 17.5625 C10.94652344 18.76003906 10.95554687 19.95757813 10.96484375 21.19140625 C10.97644531 22.11824219 10.98804688 23.04507813 11 24 C17.72646221 25.37508597 24.54641127 25.37071278 31.38476562 25.60546875 C32.82819336 25.66154297 32.82819336 25.66154297 34.30078125 25.71875 C35.17903564 25.74904297 36.05729004 25.77933594 36.9621582 25.81054688 C39 26 39 26 40 27 C40.14115161 29.67058851 40.04247107 32.32432238 40 35 C39.15703369 35.02505615 38.31406738 35.0501123 37.44555664 35.07592773 C34.32758326 35.17088155 31.20978497 35.27012448 28.09204102 35.37231445 C26.74085853 35.41571223 25.38961947 35.4573837 24.03833008 35.49731445 C22.09963299 35.55489952 20.16113724 35.61914298 18.22265625 35.68359375 C17.05484619 35.72025146 15.88703613 35.75690918 14.68383789 35.79467773 C12.08220205 35.70076188 12.08220205 35.70076188 11 37 C10.76346477 39.52596259 10.57826308 42.03107207 10.4375 44.5625 C10.39431641 45.27341797 10.35113281 45.98433594 10.30664062 46.71679688 C10.20028223 48.47761912 10.09961154 50.2387832 10 52 C10.99443115 52.02505615 11.9888623 52.0501123 13.01342773 52.07592773 C16.69048747 52.16984882 20.3673515 52.27010619 24.04418945 52.37231445 C25.637893 52.41572146 27.2316448 52.45739219 28.82543945 52.49731445 C31.11163908 52.55487807 33.39759449 52.61861149 35.68359375 52.68359375 C36.40026718 52.70030624 37.11694061 52.71701874 37.85533142 52.73423767 C42.88612829 52.88612829 42.88612829 52.88612829 44 54 C44.14115161 56.67058851 44.04247107 59.32432238 44 62 C37.8944529 62.02464513 31.78893449 62.04283371 25.68334961 62.05493164 C23.60456844 62.05997288 21.52579084 62.06680574 19.44702148 62.07543945 C16.46597414 62.08751422 13.48497351 62.09323024 10.50390625 62.09765625 C9.10078941 62.10539818 9.10078941 62.10539818 7.66932678 62.11329651 C6.37810158 62.11340981 6.37810158 62.11340981 5.06079102 62.11352539 C4.29912125 62.115746 3.53745148 62.11796661 2.75270081 62.12025452 C1 62 1 62 0 61 C-0.09391296 59.09756238 -0.11743658 57.19161541 -0.11352539 55.28686523 C-0.11344986 54.0656749 -0.11337433 52.84448456 -0.11329651 51.58628845 C-0.10818911 50.24372314 -0.10297311 48.90115825 -0.09765625 47.55859375 C-0.09579199 46.19238842 -0.09436813 44.82618243 -0.09336853 43.4599762 C-0.08954394 39.85798305 -0.07971417 36.25603 -0.06866455 32.65405273 C-0.05844916 28.98096255 -0.05387064 25.30786591 -0.04882812 21.63476562 C-0.03809184 14.42315877 -0.02101614 7.211585 0 0 Z " fill="#342F32" transform="translate(926,809)"/>
<path d="M0 0 C3.4375 0.1875 3.4375 0.1875 4.4375 1.1875 C4.5959265 3.2583472 4.68874422 5.33428029 4.75390625 7.41015625 C4.79580078 8.67021484 4.83769531 9.93027344 4.88085938 11.22851562 C4.92067596 12.56900736 4.96038814 13.9095022 5 15.25 C5.04318042 16.59441523 5.08679456 17.9388166 5.13085938 19.28320312 C5.23735358 22.5845234 5.3393646 25.88592236 5.4375 29.1875 C8.42899689 29.5298773 8.42899689 29.5298773 9.99365234 27.7253418 C10.53973145 27.05672119 11.08581055 26.38810059 11.6484375 25.69921875 C15.31470378 21.32493731 19.15044103 17.15457482 23.0625 13 C24.02542969 11.97229492 24.02542969 11.97229492 25.0078125 10.92382812 C26.24994399 9.60151807 27.49633072 8.28318838 28.74755859 6.96948242 C29.8001194 5.85959492 30.84167831 4.7390348 31.86572266 3.6027832 C33.67816988 1.64629814 34.95153907 0.31477548 37.5703125 -0.37109375 C41.30530748 -0.14406464 43.26931244 0.07537496 46.4375 2.1875 C45.756875 2.6825 45.07625 3.1775 44.375 3.6875 C41.40330813 6.21659946 38.99880092 8.86339315 36.48828125 11.8359375 C34.95368537 13.59560744 33.35661911 15.30113485 31.73046875 16.9765625 C31.26858154 17.45665771 30.80669434 17.93675293 30.33081055 18.43139648 C28.98974307 19.82087117 27.63573625 21.19782169 26.28125 22.57421875 C24.24035266 24.9737212 24.24035266 24.9737212 24.31640625 27.5234375 C25.97128411 31.45593473 28.35656851 34.69795186 30.875 38.125 C31.40834961 38.86556641 31.94169922 39.60613281 32.49121094 40.36914062 C34.13294394 42.64710607 35.78505413 44.91729892 37.4375 47.1875 C38.91366426 49.23267545 40.38633234 51.28026837 41.85571289 53.33032227 C42.73069958 54.55049161 43.60870527 55.76850273 44.48999023 56.98413086 C47.4375 61.07630461 47.4375 61.07630461 47.4375 62.1875 C38.48097826 62.9701087 38.48097826 62.9701087 34.6875 60.125 C33.945 59.155625 33.2025 58.18625 32.4375 57.1875 C31.550625 56.218125 30.66375 55.24875 29.75 54.25 C24.90586137 48.55400498 20.72894496 42.30238501 16.4375 36.1875 C11.35327698 39.05818375 7.90724895 41.80753732 5.4375 47.1875 C4.65508068 52.20717721 4.45071302 57.1136986 4.4375 62.1875 C2.95843108 62.21439216 1.47922517 62.23384621 0 62.25 C-0.82371094 62.26160156 -1.64742187 62.27320313 -2.49609375 62.28515625 C-4.5625 62.1875 -4.5625 62.1875 -5.5625 61.1875 C-5.66678875 59.35722828 -5.70104374 57.52292545 -5.70776367 55.68969727 C-5.71414352 54.51500381 -5.72052338 53.34031036 -5.72709656 52.13002014 C-5.72820938 50.85090256 -5.7293222 49.57178497 -5.73046875 48.25390625 C-5.73379715 46.95049789 -5.73712555 45.64708954 -5.74055481 44.30418396 C-5.746552 41.54091565 -5.74839412 38.77767865 -5.74780273 36.0144043 C-5.74770109 32.46881527 -5.76135231 28.92342643 -5.77857494 25.37788486 C-5.79235013 22.00322201 -5.79178323 18.62859691 -5.79296875 15.25390625 C-5.80015427 13.9768129 -5.80733978 12.69971954 -5.81474304 11.38392639 C-5.81166641 10.20608078 -5.80858978 9.02823517 -5.80541992 7.81469727 C-5.80684494 6.77402603 -5.80826996 5.7333548 -5.80973816 4.66114807 C-5.3917247 0.47887225 -4.05950654 0.21365824 0 0 Z " fill="#342F32" transform="translate(858.5625,808.8125)"/>
<path d="M0 0 C0.56589844 0.46019531 1.13179688 0.92039062 1.71484375 1.39453125 C0.96484375 8.01953125 0.96484375 8.01953125 -1.28515625 11.39453125 C-1.85621094 11.03359375 -2.42726563 10.67265625 -3.015625 10.30078125 C-10.63176316 5.94178326 -18.05047918 5.02494645 -26.66796875 6.91796875 C-27.20164062 7.07523438 -27.7353125 7.2325 -28.28515625 7.39453125 C-29.31039953 10.64450245 -29.31039953 10.64450245 -29.28515625 14.39453125 C-25.17731402 18.5847839 -21.60046103 20.25196904 -15.91015625 21.89453125 C-2.90140274 25.90211791 -2.90140274 25.90211791 1.3828125 31.62109375 C3.93772654 36.94070948 3.51451479 42.65143926 2.71484375 48.39453125 C0.6472076 52.97665532 -2.42781149 54.91130056 -6.72265625 57.33203125 C-17.7926333 60.691051 -29.23574496 58.71316118 -39.28515625 53.39453125 C-40.98651722 52.10576191 -42.66461813 50.78356392 -44.28515625 49.39453125 C-43.16063898 46.42259275 -42.06221834 44.06012438 -40.28515625 41.39453125 C-37.2310176 42.53983324 -34.73938978 43.74464559 -31.97265625 45.51953125 C-27.76766964 47.68671665 -23.61350254 47.76849407 -18.97265625 47.76953125 C-18.2664917 47.77098145 -17.56032715 47.77243164 -16.83276367 47.77392578 C-13.13573086 47.69501082 -11.4312122 47.49190188 -8.28515625 45.39453125 C-7.89173506 41.85374054 -7.69546404 39.4068829 -9.51855469 36.27709961 C-11.59431707 34.06507587 -13.03276122 33.49740179 -15.92578125 32.6484375 C-16.83199219 32.36806641 -17.73820312 32.08769531 -18.671875 31.79882812 C-19.61675781 31.52103516 -20.56164062 31.24324219 -21.53515625 30.95703125 C-36.4056024 26.57427146 -36.4056024 26.57427146 -40.6953125 20.34765625 C-42.03873258 15.89924539 -42.12277543 11.57623703 -40.4453125 7.20703125 C-37.54541821 2.05166362 -33.68885073 -1.22088388 -28.28515625 -3.60546875 C-19.07022815 -5.93516877 -7.98601616 -5.61068828 0 0 Z " fill="#342F32" transform="translate(454.28515625,812.60546875)"/>
<path d="M0 0 C6.15234375 -0.09765625 6.15234375 -0.09765625 8 0 C10.10073957 2.10073957 9.18599461 6.72963309 9.2109375 9.63671875 C9.23902069 11.42904536 9.26768525 13.22136294 9.296875 15.01367188 C9.33804906 17.84659433 9.37492394 20.67935083 9.40136719 23.51245117 C9.42906835 26.24173171 9.47495726 28.97023859 9.5234375 31.69921875 C9.52669037 32.54006516 9.52994324 33.38091156 9.53329468 34.24723816 C9.63679116 39.22730667 10.26417124 42.67808213 13 47 C18.3977884 52.12097874 23.11119905 52.30116561 30.3046875 52.21484375 C33.85396364 51.93193043 36.11756348 51.08976648 39 49 C42.70133591 44.42534634 42.44067268 40.01038371 42.44140625 34.39453125 C42.45461411 33.47411545 42.46782196 32.55369965 42.48143005 31.60539246 C42.52223786 28.67439694 42.54398301 25.743715 42.5625 22.8125 C42.58626511 19.87066755 42.61431313 16.92913129 42.65428162 13.98747253 C42.67869475 12.159056 42.6935076 10.3304816 42.69789124 8.50190735 C42.70807785 7.67732529 42.71826447 6.85274323 42.72875977 6.00317383 C42.73303482 5.27657059 42.73730988 4.54996735 42.74171448 3.80134583 C43 2 43 2 45 0 C47.71454956 -0.32752234 50.25230759 -0.1308425 53 0 C55.1999465 2.1999465 54.17181657 7.20337999 54.19018555 10.13232422 C54.17608758 30.1078661 54.17608758 30.1078661 53.1875 39.375 C53.11748779 40.07359131 53.04747559 40.77218262 52.9753418 41.49194336 C52.18848301 47.8189784 50.06795159 52.54874621 45.25 56.75 C44.29867187 57.60851562 44.29867187 57.60851562 43.328125 58.484375 C35.72552077 63.43372138 25.18854448 63.07712008 16.53125 61.5703125 C11.22345148 59.8642344 6.39563701 56.38722009 3 52 C-0.46842501 45.18299926 -1.54349197 39.41430069 -1.171875 31.8359375 C-1.14401917 30.91785309 -1.11616333 29.99976868 -1.08746338 29.05386353 C-0.99508491 26.15980113 -0.87309193 23.26790179 -0.75 20.375 C-0.68162129 18.39720263 -0.61519723 16.41933665 -0.55078125 14.44140625 C-0.38974746 9.62651666 -0.20217133 4.81333058 0 0 Z " fill="#342F32" transform="translate(338,809)"/>
<path d="M0 0 C0.66 0.66 1.32 1.32 2 2 C1.875 4.5 1.875 4.5 1 7 C-0.77734375 8.30078125 -0.77734375 8.30078125 -3 9 C-5.18359375 8.13671875 -5.18359375 8.13671875 -7.4375 6.6875 C-12.74659613 3.31737811 -17.72422746 2.30269194 -24 3 C-31.18712942 5.27012824 -36.11888207 8.05913815 -39.75 14.8125 C-42.29569282 20.90559317 -43.26598801 25.75659573 -41.3671875 32.12109375 C-38.58435694 38.75225305 -33.4288532 42.39500488 -27.0625 45.375 C-18.6384626 47.09419131 -10.70758394 46.10011625 -3.4375 41.3125 C-2.963125 40.879375 -2.48875 40.44625 -2 40 C-0.5 41.375 -0.5 41.375 1 43 C1 43.66 1 44.32 1 45 C1.66 45 2.32 45 3 45 C0.56583246 50.80740479 -4.5432508 52.96816534 -10.125 55.3125 C-22.22690888 57.45961286 -31.16129521 56.16071742 -41.1875 49.25 C-47.08375686 44.5894856 -51.00934011 39.27495705 -53 32 C-54.04600435 22.41568111 -52.83818375 14.56310869 -47.33984375 6.59375 C-35.3907752 -8.12789503 -15.31583636 -11.86977318 0 0 Z " fill="#342F32" transform="translate(562,815)"/>
<path d="M0 0 C4.88675599 2.14540507 8.20189425 5.47813282 11 10 C11.10761738 13.33613871 10.95442409 14.95254063 10 18 C9.74863281 18.80695312 9.49726563 19.61390625 9.23828125 20.4453125 C8.97402344 21.28835938 8.70976562 22.13140625 8.4375 23 C6.2143643 30.20868259 6.18886811 36.06523622 9.6328125 42.953125 C12.09916286 46.64560383 14.84311705 48.4981993 19 50 C22.67174495 50.72871254 26.30175788 51.24215823 30.0234375 51.640625 C33 52 33 52 35 53 C35 53.66 35 54.32 35 55 C29.04799814 56.71810363 23.74278034 57.30985744 17.5625 57.25 C16.37043945 57.26160156 16.37043945 57.26160156 15.15429688 57.2734375 C4.63834316 57.23921145 -2.97204158 55.01703033 -11 48 C-14.92747647 42.91738339 -14.70945393 37.16741202 -14 31 C-12.25185914 23.12296053 -8.80514457 16.55397536 -4.6171875 9.71484375 C-2.73566954 6.55625684 -1.32251265 3.42297393 0 0 Z " fill="#342F32" transform="translate(457,636)"/>
<path d="M0 0 C6.81761894 -0.0252689 13.63522589 -0.04283244 20.45288086 -0.05493164 C22.77417451 -0.05997333 25.09546497 -0.06680651 27.41674805 -0.07543945 C30.74528795 -0.08751225 34.07378602 -0.09322979 37.40234375 -0.09765625 C38.44712387 -0.10281754 39.49190399 -0.10797882 40.56834412 -0.11329651 C41.52926468 -0.11337204 42.49018524 -0.11344757 43.48022461 -0.11352539 C44.33071884 -0.115746 45.18121307 -0.11796661 46.05747986 -0.12025452 C48 0 48 0 49 1 C49.14115161 3.67058851 49.04247107 6.32432238 49 9 C47.06833984 9.09087891 47.06833984 9.09087891 45.09765625 9.18359375 C43.41925841 9.26798247 41.74087364 9.3526313 40.0625 9.4375 C38.78729492 9.49647461 38.78729492 9.49647461 37.48632812 9.55664062 C36.67744141 9.59853516 35.86855469 9.64042969 35.03515625 9.68359375 C34.2862915 9.72025146 33.53742676 9.75690918 32.76586914 9.79467773 C30.97538674 9.81771063 30.97538674 9.81771063 30 11 C29.87727151 12.59513893 29.82218957 14.19554932 29.79467773 15.79516602 C29.77473251 16.81614883 29.75478729 17.83713165 29.73423767 18.88905334 C29.71752518 19.9994548 29.70081268 21.10985626 29.68359375 22.25390625 C29.66281265 23.38448959 29.64203156 24.51507294 29.62062073 25.67991638 C29.55500203 29.30737985 29.49618323 32.93491833 29.4375 36.5625 C29.39432649 39.01498186 29.3507126 41.467456 29.30664062 43.91992188 C29.19930816 49.94653427 29.0975651 55.97322201 29 62 C27.52093108 62.02689216 26.04172517 62.04634621 24.5625 62.0625 C23.32693359 62.07990234 23.32693359 62.07990234 22.06640625 62.09765625 C20 62 20 62 19 61 C18.87727151 59.40486107 18.82218957 57.80445068 18.79467773 56.20483398 C18.77473251 55.18385117 18.75478729 54.16286835 18.73423767 53.11094666 C18.71752518 52.0005452 18.70081268 50.89014374 18.68359375 49.74609375 C18.66281265 48.61551041 18.64203156 47.48492706 18.62062073 46.32008362 C18.55500203 42.69262015 18.49618323 39.06508167 18.4375 35.4375 C18.39432649 32.98501814 18.3507126 30.532544 18.30664062 28.08007812 C18.19930816 22.05346573 18.0975651 16.02677799 18 10 C16.17662109 9.90912109 16.17662109 9.90912109 14.31640625 9.81640625 C12.73175772 9.73201668 11.14712298 9.6473679 9.5625 9.5625 C8.76005859 9.52318359 7.95761719 9.48386719 7.13085938 9.44335938 C1.11328125 9.11328125 1.11328125 9.11328125 0 8 C-0.14115161 5.32941149 -0.04247107 2.67567762 0 0 Z " fill="#342F32" transform="translate(985,809)"/>
<path d="M0 0 C1.49756836 -0.03673828 1.49756836 -0.03673828 3.02539062 -0.07421875 C10.38602976 -0.10364169 10.38602976 -0.10364169 14.26171875 2.2109375 C18.50263184 6.97658831 18.72700102 10.28024154 18.64453125 16.48046875 C18.15547157 19.57784672 17.73326934 20.5787449 15.375 22.5625 C11.54779944 24.7387513 8.91477925 25.50178592 4.58984375 25.5078125 C3.26436523 25.50974609 3.26436523 25.50974609 1.91210938 25.51171875 C0.99236328 25.50785156 0.07261719 25.50398437 -0.875 25.5 C-1.79861328 25.50386719 -2.72222656 25.50773438 -3.67382812 25.51171875 C-4.55619141 25.51042969 -5.43855469 25.50914062 -6.34765625 25.5078125 C-7.155979 25.50668457 -7.96430176 25.50555664 -8.79711914 25.50439453 C-10.8125 25.375 -10.8125 25.375 -12.8125 24.375 C-12.87037784 20.75006666 -12.9060542 17.12525143 -12.9375 13.5 C-12.95425781 12.46746094 -12.97101562 11.43492187 -12.98828125 10.37109375 C-12.99472656 9.38496094 -13.00117187 8.39882813 -13.0078125 7.3828125 C-13.01828613 6.47160645 -13.02875977 5.56040039 -13.03955078 4.62158203 C-12.39179499 -1.78771776 -4.82697572 0.00616079 0 0 Z " fill="#FCFCFC" transform="translate(802.8125,817.625)"/>
<path d="M0 0 C3.4375 0.1875 3.4375 0.1875 4.4375 1.1875 C4.53141296 3.08993762 4.55493658 4.99588459 4.55102539 6.90063477 C4.55094986 8.1218251 4.55087433 9.34301544 4.55079651 10.60121155 C4.54568911 11.94377686 4.54047311 13.28634175 4.53515625 14.62890625 C4.53329199 15.99511158 4.53186813 17.36131757 4.53086853 18.7275238 C4.52704394 22.32951695 4.51721417 25.93147 4.50616455 29.53344727 C4.49594916 33.20653745 4.49137064 36.87963409 4.48632812 40.55273438 C4.47559184 47.76434123 4.45851614 54.975915 4.4375 62.1875 C2.95843108 62.21439216 1.47922517 62.23384621 0 62.25 C-0.82371094 62.26160156 -1.64742188 62.27320313 -2.49609375 62.28515625 C-4.5625 62.1875 -4.5625 62.1875 -5.5625 61.1875 C-5.66678875 59.35722828 -5.70104374 57.52292545 -5.70776367 55.68969727 C-5.71414352 54.51500381 -5.72052338 53.34031036 -5.72709656 52.13002014 C-5.72820938 50.85090256 -5.7293222 49.57178497 -5.73046875 48.25390625 C-5.73379715 46.95049789 -5.73712555 45.64708954 -5.74055481 44.30418396 C-5.746552 41.54091565 -5.74839412 38.77767865 -5.74780273 36.0144043 C-5.74770109 32.46881527 -5.76135231 28.92342643 -5.77857494 25.37788486 C-5.79235013 22.00322201 -5.79178323 18.62859691 -5.79296875 15.25390625 C-5.80015427 13.9768129 -5.80733978 12.69971954 -5.81474304 11.38392639 C-5.81166641 10.20608078 -5.80858978 9.02823517 -5.80541992 7.81469727 C-5.80684494 6.77402603 -5.80826996 5.7333548 -5.80973816 4.66114807 C-5.3917247 0.47887225 -4.05950654 0.21365824 0 0 Z " fill="#342F32" transform="translate(484.5625,808.8125)"/>
<path d="M0 0 C2.63367854 2.32842739 3.88530951 4.56256994 5.26171875 7.78125 C5.85629883 9.16763672 5.85629883 9.16763672 6.46289062 10.58203125 C6.86701172 11.54496094 7.27113281 12.50789062 7.6875 13.5 C8.10322266 14.46292969 8.51894531 15.42585937 8.94726562 16.41796875 C12 23.60618073 12 23.60618073 12 27 C4.74 27 -2.52 27 -10 27 C-8.8744538 19.1211766 -8.8744538 19.1211766 -7.1875 15.1953125 C-6.83429687 14.36515625 -6.48109375 13.535 -6.1171875 12.6796875 C-5.74851562 11.83664062 -5.37984375 10.99359375 -5 10.125 C-4.44699219 8.825625 -4.44699219 8.825625 -3.8828125 7.5 C-1.15998455 1.15998455 -1.15998455 1.15998455 0 0 Z " fill="#FCFCFC" transform="translate(730,821)"/>
<path d="M0 0 C2.4375 1.8125 2.4375 1.8125 3.3125 4.5 C3.35375 5.263125 3.395 6.02625 3.4375 6.8125 C-2.43965776 11.90603673 -6.06345421 13.00929699 -13.9375 13.0625 C-14.69289063 13.083125 -15.44828125 13.10375 -16.2265625 13.125 C-20.86892831 13.1574641 -23.72607835 12.7165642 -27.5625 9.8125 C-26.64761472 5.80987688 -25.03374794 4.19588856 -21.6875 2.0625 C-14.98649737 -1.9631974 -7.39369596 -2.46456532 0 0 Z " fill="#FCFCFC" transform="translate(527.5625,566.1875)"/>
<path d="M0 0 C2.8125 1.875 2.8125 1.875 3.9375 4.875 C3.8125 7.875 3.8125 7.875 2.8125 9.625 C-3.86269095 13.79699434 -10.67203191 13.11571327 -18.1875 11.875 C-21.63362718 10.97090531 -24.42870912 10.11302723 -26.375 6.9375 C-26.1875 4.875 -26.1875 4.875 -24.625 2.75 C-17.95431973 -2.38129252 -7.85945507 -2.74431386 0 0 Z " fill="#FCFCFC" transform="translate(749.1875,644.125)"/>
<path d="M0 0 C3.05529523 1.06935333 3.96696113 2.05098103 5.5 4.875 C5.5 6.195 5.5 7.515 5.5 8.875 C4.0629191 8.92922947 2.62524538 8.96789723 1.1875 9 C0.38699219 9.02320313 -0.41351562 9.04640625 -1.23828125 9.0703125 C-3.5 8.875 -3.5 8.875 -6.5 6.875 C-6.1875 4.5 -6.1875 4.5 -5.5 1.875 C-2.5 -0.125 -2.5 -0.125 0 0 Z " fill="#FCFCFC" transform="translate(766.5,649.125)"/>
<path d="M0 0 C0.625 3.375 0.625 3.375 1 7 C-1 9 -1 9 -4.5 9.1875 C-8 9 -8 9 -10 8 C-9.875 6.25 -9.875 6.25 -9 4 C-3.88888889 0 -3.88888889 0 0 0 Z " fill="#FCFCFC" transform="translate(493,576)"/>
</svg>
